<?xml version="1.0" encoding="UTF-8" standalone="no"?>
<svg
   xmlns:dc="http://purl.org/dc/elements/1.1/"
   xmlns:cc="http://creativecommons.org/ns#"
   xmlns:rdf="http://www.w3.org/1999/02/22-rdf-syntax-ns#"
   xmlns:svg="http://www.w3.org/2000/svg"
   xmlns="http://www.w3.org/2000/svg"
   xmlns:xlink="http://www.w3.org/1999/xlink"
   version="1.1"
   id="svg2"
   height="108.812"
   width="130.824">
  <metadata
     id="metadata39">
    <rdf:RDF>
      <cc:Work
         rdf:about="">
        <dc:format>image/svg+xml</dc:format>
        <dc:type
           rdf:resource="http://purl.org/dc/dcmitype/StillImage" />
        <dc:title></dc:title>
      </cc:Work>
    </rdf:RDF>
  </metadata>
  <defs
     id="defs4">
    <linearGradient
       id="linearGradient6"
       gradientUnits="userSpaceOnUse"
       xlink:href="#a"
       y2="-47.878"
       x2="4.414"
       y1="38.773"
       x1="4.434" />
    <linearGradient
       id="a">
      <stop
         id="stop9"
         stop-color="#b3dcb6"
         offset="0" />
      <stop
         id="stop11"
         stop-color="#72dddf"
         offset="1" />
    </linearGradient>
    <linearGradient
       id="linearGradient13"
       gradientUnits="userSpaceOnUse"
       xlink:href="#a"
       y2="-47.878"
       x2="4.414"
       y1="38.773"
       x1="4.434" />
    <linearGradient
       id="linearGradient15"
       gradientUnits="userSpaceOnUse"
       xlink:href="#b"
       y2="-47.878"
       x2="4.414"
       y1="38.773"
       x1="4.434" />
    <linearGradient
       id="b">
      <stop
         id="stop18"
         stop-color="#e16732"
         offset="0" />
      <stop
         id="stop20"
         stop-color="#f80000"
         offset="1" />
    </linearGradient>
    <linearGradient
       id="linearGradient22"
       gradientUnits="userSpaceOnUse"
       xlink:href="#b"
       y2="-47.878"
       x2="4.414"
       y1="38.773"
       x1="4.434" />
    <linearGradient
       id="linearGradient24"
       gradientUnits="userSpaceOnUse"
       xlink:href="#c"
       y2="58.693"
       x2="7.905"
       y1="-43.062"
       x1="1.735" />
    <linearGradient
       id="c">
      <stop
         id="stop27"
         stop-color="#3c3c3c"
         offset="0" />
      <stop
         id="stop29"
         stop-color="#838383"
         offset="1" />
    </linearGradient>
    <linearGradient
       id="linearGradient31"
       gradientUnits="userSpaceOnUse"
       xlink:href="#c"
       y2="58.693"
       x2="7.905"
       y1="-43.062"
       x1="1.735" />
  </defs>
  <path
     style="fill:#eeeeee"
     id="path33"
     d="M -0.03,110.938 1.03,84.218 C 1.178,77.665 6.523,73.276 11.563,72.781 l 12.656,-0.593 c 11.935,0.004 23.86,-2.79 34.405,-8.593 C 78.137,53.342 92.31,33.036 94.47,11.156 c 1.045,-4.994 4.377,-8.89 9.405,-9.78 l 29.063,-1.5 C 101.823,-3.81 3.674,-3.525 -1.494,-0.395 -9.12,42.375 -3.478,79.1 -0.03,110.937 Z M 80.72,3.06 c 0.528,-0.013 1.1,0.01 1.718,0.063 8.852,-0.623 6.998,3.794 6.624,10 -2.144,19.46 -16.07,37.98 -29.562,44.656 -4.526,2.117 -18.978,9.47 -41.75,9.814 C 13.257678,67.023 9.0154742,65.769262 8.7469406,63.326593 12.997085,58.014457 17.939797,54.545272 20.625,53.655 c 10.3,-0.96 10.283,0.1 25.78,-3.718 15.218,-7.13 24.122,-16.7 28.75,-37.563 0.961602,-7.4485339 1.857,-9.215 5.564,-9.313 z" />
  <path
     id="path35"
     stroke-linecap="round"
     stroke-width="1.9"
     stroke="#eee"
     fill="none"
     d="M81.92 6.23c-3.307-.277-2.416.598-3.257 5.13C72.628 43.756 52.66 56.083 21.01 56.988" />
</svg>
